<?xml version="1.0" standalone="no"?>
<!DOCTYPE svg PUBLIC "-//W3C//DTD SVG 1.1//EN" "http://www.w3.org/Graphics/SVG/1.1/DTD/svg11.dtd" >
<svg xmlns="http://www.w3.org/2000/svg" xmlns:xlink="http://www.w3.org/1999/xlink" version="1.1">
<metadata></metadata>
<defs>
<font id="verlagblack" horiz-adv-x="1024" >
<font-face units-per-em="2048" ascent="1638" descent="-410" />
<missing-glyph horiz-adv-x="419" />
<glyph horiz-adv-x="0" />
<glyph horiz-adv-x="682" />
<glyph unicode=" "  horiz-adv-x="419" />
<glyph unicode="&#x09;" horiz-adv-x="419" />
<glyph unicode="&#xa0;" horiz-adv-x="419" />
<glyph unicode="!" horiz-adv-x="622" d="M143 1501h334l-67 -1034h-199zM150 145q0 68 47 115t114 47q66 0 113 -47.5t47 -114.5t-47 -114t-113 -47q-67 0 -114 47t-47 114z" />
<glyph unicode="&#x22;" horiz-adv-x="921" d="M59 928l260 499l197 -135l-344 -440zM453 907l260 500l196 -135l-344 -441z" />
<glyph unicode="#" horiz-adv-x="1302" d="M51 283l47 204h217l52 234h-217l45 205h215l61 282h219l-61 -282h180l61 282h222l-62 -282h221l-45 -205h-219l-51 -234h219l-47 -204h-217l-62 -283h-219l62 283h-180l-62 -283h-221l61 283h-219zM535 487h180l51 234h-180z" />
<glyph unicode="$" horiz-adv-x="1067" d="M66 111l92 256q130 -92 272 -125l27 264q-184 63 -258 144t-74 210q0 151 111 255t296 114l17 160h151l-16 -166q146 -22 270 -93l-77 -253q-91 62 -218 94l-24 -246q190 -66 267 -148t77 -217q0 -163 -115.5 -268.5t-306.5 -114.5l-14 -157h-152l15 166 q-181 23 -340 125zM401 889q0 -39 20.5 -64.5t70.5 -48.5l18 207q-109 -9 -109 -94zM580 231q118 12 118 103q0 41 -21 68t-77 53z" />
<glyph unicode="%" horiz-adv-x="1525" d="M102 913q0 130 80 223t215 93t213 -93t78 -223t-80 -222.5t-215 -92.5q-134 0 -212.5 92.5t-78.5 222.5zM223 68l961 1171l119 -100l-961 -1172zM305 913q0 -75 23.5 -117t66.5 -42q44 0 68 42t24 117t-24 117.5t-68 42.5q-43 0 -66.5 -42.5t-23.5 -117.5zM838 295 q0 129 80 222t215 93q134 0 212 -93t78 -222q0 -130 -80 -222.5t-215 -92.5t-212.5 92.5t-77.5 222.5zM1038 295q0 -76 24 -119t68 -43q43 0 67 43.5t24 118.5t-24 117.5t-67 42.5q-44 0 -68 -42.5t-24 -117.5z" />
<glyph unicode="&#x26;" horiz-adv-x="1343" d="M102 328q0 104 74.5 199t198.5 147q-84 136 -84 231q0 138 109.5 241t271.5 103q161 0 263.5 -95t102.5 -222q0 -108 -78.5 -194t-222.5 -130q86 -101 176 -184q100 90 183 197l176 -156q-114 -131 -187 -201q54 -49 136 -117l-177 -174q-23 20 -76 62.5t-77 64.5 q-180 -120 -363 -120q-109 0 -204.5 40t-158.5 121t-63 187zM406 354q0 -59 41.5 -96t111.5 -37q67 0 154 49q-133 133 -213 230q-43 -20 -68.5 -60.5t-25.5 -85.5zM569 905q0 -77 56 -149q78 26 115.5 70t37.5 92q0 46 -29 76t-79 30q-44 0 -72.5 -34.5t-28.5 -84.5z" />
<glyph unicode="'" horiz-adv-x="528" d="M59 928l260 499l197 -135l-344 -440z" />
<glyph unicode="(" horiz-adv-x="778" d="M111 528q0 207 57.5 396.5t180.5 357.5t302 283l144 -185q-428 -295 -428 -852q0 -555 428 -850l-144 -186q-179 116 -302 283.5t-180.5 356.5t-57.5 396z" />
<glyph unicode=")" horiz-adv-x="778" d="M-16 -322q428 295 428 850q0 557 -428 852l143 185q267 -172 404 -446.5t137 -590.5q0 -207 -57.5 -396t-181 -356.5t-302.5 -283.5z" />
<glyph unicode="*" horiz-adv-x="837" d="M76 1182l59 182l205 -88l-21 223h193l-20 -223l204 88l60 -182l-219 -49l149 -168l-156 -113l-114 192l-115 -192l-156 113l150 168z" />
<glyph unicode="+" horiz-adv-x="937" d="M123 481v217h233v248h226v-248h233v-217h-233v-248h-226v248h-233z" />
<glyph unicode="," horiz-adv-x="561" d="M121 145q0 63 44 108.5t107 45.5q80 0 125 -56t45 -139q0 -111 -81.5 -225.5t-198.5 -163.5l-29 45q66 57 99.5 106.5t52.5 117.5q-74 4 -119 49.5t-45 111.5z" />
<glyph unicode="-" horiz-adv-x="718" d="M96 397v215h527v-215h-527z" />
<glyph unicode="." horiz-adv-x="561" d="M121 145q0 67 47 114.5t113 47.5q67 0 114 -47t47 -115q0 -67 -47 -114t-114 -47q-66 0 -113 47t-47 114z" />
<glyph unicode="/" horiz-adv-x="765" d="M57 -442l488 1943h221l-487 -1943h-222z" />
<glyph unicode="0" horiz-adv-x="1212" d="M90 604q0 101 20.5 192.5t63.5 170.5t104 137.5t146.5 91.5t187.5 33q126 0 225.5 -50.5t161.5 -138t94.5 -198.5t32.5 -238q0 -126 -33.5 -237t-96.5 -198t-164.5 -138t-227.5 -51q-101 0 -186 33t-145 91.5t-101.5 137.5t-61.5 170.5t-20 191.5zM401 604 q0 -178 52 -277.5t155 -99.5q104 0 155.5 99t51.5 278t-51.5 278t-155.5 99q-103 0 -155 -99.5t-52 -277.5z" />
<glyph unicode="1" horiz-adv-x="841" d="M39 1038l510 197h96v-1235h-303v870l-207 -86z" />
<glyph unicode="2" horiz-adv-x="1005" d="M74 0v168q263 220 379 356q135 156 135 260q0 81 -47 129t-135 48q-101 0 -220 -80l-106 231q94 62 178.5 89.5t198.5 27.5q194 0 311 -111.5t117 -275.5t-137 -340q-88 -113 -248 -246h415v-256h-841z" />
<glyph unicode="3" horiz-adv-x="997" d="M76 35l63 250q122 -45 256 -45q90 0 148.5 36.5t58.5 102.5q0 59 -54 97t-157 38q-96 0 -164 -16l-55 141l342 313h-405v256h782v-200l-342 -289q98 -7 169.5 -35.5t112.5 -73.5t60.5 -99t19.5 -120q0 -77 -35 -150.5t-97 -131.5t-155.5 -93.5t-201.5 -35.5 q-186 0 -346 55z" />
<glyph unicode="4" horiz-adv-x="1054" d="M45 246v207l614 778h189v-752h162v-233h-162v-250h-289v250h-514zM350 479h209v266z" />
<glyph unicode="5" horiz-adv-x="1050" d="M121 35l43 256q135 -51 258 -51q120 0 186 41t66 106q0 150 -252 150q-126 0 -234 -27l-18 22v676h729v-256h-444v-174q70 4 98 4q212 0 316 -101.5t104 -268.5q0 -90 -37 -169t-104.5 -137t-167 -92t-218.5 -34q-168 0 -325 55z" />
<glyph unicode="6" horiz-adv-x="1071" d="M90 422q0 520 696 844l121 -240q-146 -52 -274 -130t-197 -163q78 45 172 45q184 0 280.5 -108t96.5 -273q0 -78 -29.5 -151.5t-84 -133t-141 -96t-191.5 -36.5q-203 0 -326 126t-123 316zM385 397q0 -84 41.5 -135t114.5 -51q76 0 113.5 51t37.5 131q0 82 -40 131 t-109 49q-74 0 -116 -44t-42 -132z" />
<glyph unicode="7" horiz-adv-x="1007" d="M109 940v268h899l-539 -1208h-305l405 940h-460z" />
<glyph unicode="8" horiz-adv-x="1101" d="M102 324q0 203 201 290q-94 49 -135 115t-41 160q0 143 118 241.5t306 98.5t306 -98.5t118 -241.5q0 -94 -41 -160t-135 -115q200 -87 200 -290q0 -143 -123.5 -243.5t-324.5 -100.5q-200 0 -324.5 100.5t-124.5 243.5zM408 371q0 -62 39.5 -101t103.5 -39t103.5 39 t39.5 101q0 65 -39 102t-104 37t-104 -37t-39 -102zM408 838q0 -65 39 -101.5t104 -36.5t104 36.5t39 101.5q0 62 -39.5 100.5t-103.5 38.5t-103.5 -38.5t-39.5 -100.5z" />
<glyph unicode="9" horiz-adv-x="1073" d="M100 811q0 78 29.5 152t83.5 133.5t140.5 96t191.5 36.5q205 0 327.5 -127.5t122.5 -333.5q0 -88 -22 -171.5t-73.5 -171.5t-131 -168.5t-199 -161t-272.5 -150.5l-127 227q283 121 459 293q-79 -35 -154 -35q-94 0 -167 30t-117.5 83t-67.5 121t-23 147zM391 815 q0 -80 41 -130t109 -50q75 0 117 44.5t42 131.5q0 84 -42 135t-115 51q-76 0 -114 -51t-38 -131z" />
<glyph unicode=":" horiz-adv-x="561" d="M121 145q0 67 47 114.5t113 47.5q67 0 114 -47t47 -115q0 -67 -47 -114t-114 -47q-66 0 -113 47t-47 114zM121 662q0 66 47 113.5t113 47.5q67 0 114 -47.5t47 -113.5q0 -68 -47 -115t-114 -47q-66 0 -113 47.5t-47 114.5z" />
<glyph unicode=";" horiz-adv-x="561" d="M121 145q0 63 44 108.5t107 45.5q80 0 125 -56t45 -139q0 -111 -81.5 -225.5t-198.5 -163.5l-29 45q66 57 99.5 106.5t52.5 117.5q-74 4 -119 49.5t-45 111.5zM121 662q0 66 47 113.5t113 47.5q67 0 114 -47.5t47 -113.5q0 -68 -47 -115t-114 -47q-66 0 -113 47.5 t-47 114.5z" />
<glyph unicode="&#x3c;" horiz-adv-x="806" d="M78 590l467 500l172 -179l-314 -321l314 -320l-172 -178z" />
<glyph unicode="=" horiz-adv-x="919" d="M123 305v207h674v-207h-674zM123 668v206h674v-206h-674z" />
<glyph unicode="&#x3e;" horiz-adv-x="806" d="M90 270l311 320l-311 321l172 179l467 -500l-467 -498z" />
<glyph unicode="?" horiz-adv-x="825" d="M47 1462q157 54 303 54q112 0 200 -29.5t143 -81t83.5 -117.5t28.5 -141q0 -61 -20.5 -115t-54 -94t-73.5 -77t-79.5 -72t-73 -69.5t-54 -78.5t-20.5 -92v-76h-266v94q0 85 29 157t70.5 120.5t83 90t70.5 85t29 86.5q0 67 -45.5 99t-121.5 32q-89 0 -187 -37zM133 145 q0 67 47.5 114.5t114.5 47.5t114.5 -47.5t47.5 -114.5t-47 -114t-115 -47t-115 47t-47 114z" />
<glyph unicode="@" horiz-adv-x="1413" d="M102 600q0 166 84 310.5t225.5 229.5t303.5 85q116 0 216.5 -35.5t171 -94t121.5 -134t75 -156t24 -158.5q0 -96 -35 -176.5t-102 -130.5q-61 -43 -142 -43q-55 0 -101.5 26.5t-70.5 75.5q-82 -88 -210 -88q-79 0 -132 44.5t-53 121.5q0 73 53 119.5t144 46.5 q69 0 129 -31v15q0 104 -119 104q-56 0 -127 -18l-16 127q86 28 174 28q132 0 187.5 -60t55.5 -185v-131q0 -49 28 -73t67 -24t69 23q37 28 58.5 86t21.5 129q0 63 -16.5 127.5t-54.5 128.5t-93 113.5t-138.5 80.5t-184.5 31q-129 0 -242 -70.5t-180.5 -189.5t-67.5 -254 q0 -104 38 -197t107.5 -163.5t175 -112t232.5 -41.5q108 0 244 47l29 -108q-166 -50 -279 -50q-149 0 -276 50t-212.5 135.5t-133.5 199.5t-48 240zM649 479q0 -30 19.5 -46.5t52.5 -16.5q55 0 82 37v61q-33 29 -76 29q-33 0 -55.5 -18.5t-22.5 -45.5z" />
<glyph unicode="A" horiz-adv-x="1419" d="M-20 0l706 1513h47l707 -1513h-363l-112 272h-519l-112 -272h-354zM557 539h297l-147 360z" />
<glyph unicode="B" horiz-adv-x="1380" d="M164 16v1467q225 33 420 33q158 0 285.5 -33.5t207.5 -90.5t122 -128.5t42 -151.5q0 -228 -258 -334q301 -90 301 -352q0 -89 -42.5 -167.5t-123.5 -140t-211.5 -97t-294.5 -35.5q-203 0 -448 30zM502 289q74 -6 145 -6q130 0 195 47t65 133q0 87 -69 133.5t-205 46.5 q-79 0 -131 -6v-348zM502 885q58 -6 129 -6q125 0 188.5 43.5t63.5 126.5q0 71 -59 117t-165 46q-71 0 -157 -14v-313z" />
<glyph unicode="C" horiz-adv-x="1482" d="M113 750q0 166 60 309.5t166.5 246t260.5 161.5t334 59q248 0 469 -131l-107 -295q-182 100 -358 100q-211 0 -333 -120.5t-122 -329.5t122 -330t333 -121q92 0 191 29.5t184 81.5l104 -295q-99 -65 -227 -102.5t-256 -37.5q-180 0 -334 59t-260.5 162t-166.5 246 t-60 308z" />
<glyph unicode="D" horiz-adv-x="1634" d="M164 12v1475q232 24 444 24q228 0 404.5 -56.5t287 -158t166.5 -236t56 -296.5q0 -134 -33 -250.5t-104 -213.5t-176 -166t-254 -107.5t-332 -38.5t-459 24zM512 307q84 -8 166 -8q238 0 355.5 123t117.5 342q0 206 -128 321t-368 115q-72 0 -143 -8v-885z" />
<glyph unicode="E" horiz-adv-x="1257" d="M164 0v1501h950v-319h-602v-269h549v-303h-549v-293h602v-317h-950z" />
<glyph unicode="F" horiz-adv-x="1171" d="M164 0v1501h950v-319h-602v-332h516v-305h-516v-545h-348z" />
<glyph unicode="G" horiz-adv-x="1587" d="M113 750q0 226 106.5 404t290.5 275t410 97q255 0 503 -129l-145 -281q-162 84 -336 84q-219 0 -339 -123.5t-120 -326.5q0 -211 125 -338t314 -127q81 0 130 9.5t91 31.5v221h-301v297h628v-717q-263 -152 -569 -152q-164 0 -308.5 57t-250.5 157.5t-167.5 246 t-61.5 314.5z" />
<glyph unicode="H" horiz-adv-x="1601" d="M164 0v1501h348v-588h578v588h348v-1501h-348v602h-578v-602h-348z" />
<glyph unicode="I" horiz-adv-x="696" d="M174 0v1501h348v-1501h-348z" />
<glyph unicode="J" horiz-adv-x="1128" d="M27 82l108 291q129 -80 291 -80q104 0 152.5 64t48.5 192v952h348v-983q0 -128 -29 -225t-91.5 -169.5t-167.5 -110.5t-251 -38q-119 0 -215 25.5t-194 81.5z" />
<glyph unicode="K" horiz-adv-x="1523" d="M164 0v1501h348v-653l526 653h412l-616 -715l649 -786h-420l-551 702v-702h-348z" />
<glyph unicode="L" horiz-adv-x="1150" d="M164 0v1501h348v-1184h602v-317h-950z" />
<glyph unicode="M" horiz-adv-x="1865" d="M143 0l70 1511l47 5l680 -859l664 859l47 -5l71 -1511h-338l-18 737l-416 -526h-37l-419 526l-15 -737h-336z" />
<glyph unicode="N" horiz-adv-x="1615" d="M164 0v1522l47 8l893 -807v778h348v-1524l-35 -6l-905 813v-784h-348z" />
<glyph unicode="O" horiz-adv-x="1763" d="M113 750q0 164 56.5 307.5t156.5 246.5t246 162.5t317 59.5q227 0 401.5 -102t267.5 -277.5t93 -396.5q0 -164 -57 -306.5t-157.5 -246t-246.5 -163t-316 -59.5q-171 0 -314.5 59.5t-241 163t-151.5 246t-54 306.5zM483 750q0 -203 110.5 -334t287.5 -131t287 131 t110 334q0 204 -110 334t-287 130t-287.5 -130t-110.5 -334z" />
<glyph unicode="P" horiz-adv-x="1323" d="M164 0v1487q231 24 418 24q159 0 286.5 -40.5t210 -113t126.5 -169.5t44 -211q0 -239 -159 -386t-449 -147q-11 0 -129 5v-449h-348zM512 750q19 -1 52.5 -3t51.5 -2q137 0 207 58t70 168q0 96 -64 155.5t-188 59.5q-58 0 -129 -8v-428z" />
<glyph unicode="Q" horiz-adv-x="1763" d="M113 750q0 164 56.5 307.5t157 246.5t246 162.5t316.5 59.5q228 0 402.5 -102t267 -277.5t92.5 -396.5q0 -231 -127 -426q0 1 41.5 -34.5t82.5 -71.5l42 -36l-211 -239l-176 159q-195 -127 -429 -127q-170 0 -313.5 59.5t-241 163t-152 246t-54.5 306.5zM485 750 q0 -203 110.5 -334t287.5 -131q90 0 170 39l-222 188l211 242l209 -191q29 92 29 187q0 204 -110.5 334t-286.5 130q-177 0 -287.5 -130t-110.5 -334z" />
<glyph unicode="R" horiz-adv-x="1374" d="M166 0v1487q218 24 442 24q170 0 298 -38.5t204 -107.5t113 -157t37 -194q0 -133 -68.5 -247.5t-190.5 -186.5l353 -580h-396l-256 489q-20 -2 -59 -2q-7 0 -129 5v-492h-348zM514 776q67 -6 111 -6q127 0 199.5 59.5t72.5 171.5q0 93 -67 146t-181 53q-74 0 -135 -10 v-414z" />
<glyph unicode="S" horiz-adv-x="1171" d="M51 129l96 315q92 -67 204 -106t216 -39q88 0 129 35.5t41 95.5q0 42 -18.5 73t-78 68t-171.5 82q-356 143 -356 441q0 84 34 160.5t98 137.5t166.5 97.5t229.5 36.5q116 0 232.5 -34.5t187.5 -82.5l-88 -311q-72 49 -165 86t-167 37q-89 0 -133.5 -35t-44.5 -86 q0 -21 5.5 -38.5t13 -31.5t27 -29.5t34.5 -25.5t50 -26.5t59.5 -27.5t74.5 -32q203 -86 284 -191t81 -256q0 -92 -33.5 -174.5t-98 -148.5t-169 -105t-234.5 -39q-124 0 -264.5 44t-241.5 110z" />
<glyph unicode="T" horiz-adv-x="1351" d="M51 1182v319h1249v-319h-450v-1182h-348v1182h-451z" />
<glyph unicode="U" horiz-adv-x="1562" d="M147 610v891h349v-866q0 -164 71 -253t217 -89q144 0 215.5 89t71.5 253v866h348v-891q0 -310 -168.5 -472.5t-474.5 -162.5q-304 0 -466.5 162t-162.5 473z" />
<glyph unicode="V" horiz-adv-x="1433" d="M-20 1501h399l342 -811l342 811h391l-717 -1513h-41z" />
<glyph unicode="W" horiz-adv-x="2093" d="M0 1501h399l242 -788l391 800h37l393 -794l240 782h391l-539 -1526l-47 -4l-460 899l-455 -899l-45 4z" />
<glyph unicode="X" horiz-adv-x="1511" d="M41 0l494 733l-494 768h416l303 -495l305 495h408l-494 -733l494 -768h-416l-301 494l-305 -494h-410z" />
<glyph unicode="Y" horiz-adv-x="1445" d="M20 1501h400l307 -575l307 575h391l-528 -907v-594h-348v596z" />
<glyph unicode="Z" horiz-adv-x="1392" d="M45 37l743 1145h-690v319h1245l11 -39l-744 -1145h719v-317h-1274z" />
<glyph unicode="[" horiz-adv-x="710" d="M158 -442v1943h510v-225h-267v-1493h267v-225h-510z" />
<glyph unicode="\" horiz-adv-x="768" d="M0 1501h221l488 -1943h-222z" />
<glyph unicode="]" horiz-adv-x="710" d="M43 -217h266v1493h-266v225h510v-1943h-510v225z" />
<glyph unicode="^" d="M127 1018l334 397h125l323 -397h-268l-129 170l-129 -170h-256z" />
<glyph unicode="_" horiz-adv-x="1064" d="M0 0v139h1065v-139h-1065z" />
<glyph unicode="`" d="M281 1182l129 237l395 -299l-82 -131z" />
<glyph unicode="a" horiz-adv-x="985" d="M53 260q0 119 87.5 197t238.5 78q116 0 213 -54v23q0 176 -199 176q-75 0 -209 -31l-26 211q148 45 288 45q447 0 447 -407v-498h-293v76q-48 -47 -104.5 -69.5t-137.5 -22.5q-133 0 -219 74t-86 202zM338 262q0 -49 31.5 -77.5t85.5 -28.5q89 0 137 63v100 q-54 48 -127 48q-52 0 -89.5 -30t-37.5 -75z" />
<glyph unicode="b" horiz-adv-x="1140" d="M117 0v1501h303v-690q52 48 109.5 71t136.5 23q172 0 285.5 -126.5t113.5 -319.5q0 -190 -121.5 -332.5t-288.5 -142.5q-137 0 -243 86v-70h-295zM420 303q30 -41 73 -62.5t89 -21.5q90 0 135 62t45 174q0 215 -176 215q-46 0 -91 -20.5t-75 -53.5v-293z" />
<glyph unicode="c" horiz-adv-x="892" d="M66 440q0 94 33.5 177.5t96.5 148t164 102t228 37.5q153 0 293 -88l-88 -203q-99 52 -199 52q-99 0 -163 -55.5t-64 -166.5q0 -103 67.5 -162t171.5 -59q109 0 197 51l78 -202q-140 -88 -293 -88q-127 0 -228 36t-164.5 99t-96.5 145t-33 176z" />
<glyph unicode="d" horiz-adv-x="1130" d="M76 444q0 92 35 178t92.5 147.5t135.5 98.5t161 37q78 0 126 -16.5t95 -52.5v665h303v-1501h-295v74q-57 -49 -112 -69.5t-136 -20.5q-182 0 -293.5 131t-111.5 329zM379 449q0 -110 46.5 -170t133.5 -60q51 0 89.5 19t72.5 65v279q-27 37 -69.5 62.5t-88.5 25.5 q-82 0 -133 -55t-51 -166z" />
<glyph unicode="e" horiz-adv-x="1005" d="M66 440q0 90 30.5 172.5t87.5 148.5t147 105t201 39q136 0 233 -59t143 -154.5t46 -214.5q0 -78 -6 -125h-581q14 -75 66 -109t157 -34q106 0 270 47l29 -223q-194 -49 -330 -49q-127 0 -223.5 36t-154 99.5t-86.5 144t-29 176.5zM369 518h321q-7 77 -50 117.5t-108 40.5 q-68 0 -110.5 -40.5t-52.5 -117.5z" />
<glyph unicode="f" horiz-adv-x="782" d="M39 649v43l190 197v184q0 208 105 325.5t311 117.5q72 0 154 -19l-25 -256q-36 8 -94 8q-73 0 -110.5 -43t-37.5 -157v-160h240v-240h-240v-649h-303v649h-190z" />
<glyph unicode="g" horiz-adv-x="1120" d="M76 430q0 196 127.5 335.5t304.5 139.5q124 0 221 -63v47h295v-897q0 -128 -29.5 -216.5t-89 -139.5t-140 -73t-192.5 -22q-158 0 -292 41l22 260q106 -37 221 -37q101 0 149 44t48 149v43q-80 -57 -205 -57q-192 0 -316 116t-124 330zM379 426q0 -96 50 -152.5 t142 -56.5q91 0 150 68v321q-60 60 -150 60q-86 0 -139 -63t-53 -177z" />
<glyph unicode="h" horiz-adv-x="1114" d="M117 0v1501h303v-766q82 89 160.5 129.5t164.5 40.5q134 0 205.5 -80t71.5 -215v-610h-305v541q0 62 -23.5 87t-70.5 25q-104 0 -201 -106v-547h-305z" />
<glyph unicode="i" horiz-adv-x="559" d="M111 1196q0 71 50 121.5t120 50.5t120 -50.5t50 -121.5q0 -70 -49.5 -120t-120.5 -50t-120.5 50t-49.5 120zM127 0v889h305v-889h-305z" />
<glyph unicode="j" horiz-adv-x="559" d="M-139 -442l26 252q46 -11 95 -11q75 0 110 36.5t35 135.5v918h305v-934q0 -205 -102 -309.5t-314 -104.5q-78 0 -155 17zM111 1196q0 71 50 121.5t120 50.5t120 -50.5t50 -121.5q0 -70 -49.5 -120t-120.5 -50t-120.5 50t-49.5 120z" />
<glyph unicode="k" horiz-adv-x="1085" d="M117 0v1501h303v-985l280 373h357l-359 -424l373 -465h-356l-295 403v-403h-303z" />
<glyph unicode="l" horiz-adv-x="536" d="M117 0v1501h303v-1501h-303z" />
<glyph unicode="m" horiz-adv-x="1656" d="M117 0v889h297v-160q86 92 159 134t156 42q191 0 246 -176q85 91 163.5 134.5t161.5 43.5q130 0 197.5 -79.5t67.5 -213.5v-614h-305v543q0 59 -23 85.5t-70 26.5q-79 0 -174 -106v-549h-305v541q0 112 -92 112q-77 0 -174 -106v-547h-305z" />
<glyph unicode="n" horiz-adv-x="1114" d="M117 0v889h297v-160q89 91 168 133.5t163 42.5q134 0 205.5 -80t71.5 -215v-610h-305v541q0 62 -23.5 87t-70.5 25q-104 0 -201 -106v-547h-305z" />
<glyph unicode="o" horiz-adv-x="1087" d="M66 444q0 126 56 230t166.5 167.5t256.5 63.5q218 0 347.5 -133t129.5 -328q0 -126 -55.5 -229.5t-165.5 -167t-256 -63.5t-256.5 63t-166.5 167t-56 230zM367 444q0 -112 46.5 -173.5t131.5 -61.5q83 0 129.5 61.5t46.5 173.5t-46.5 174t-129.5 62q-85 0 -131.5 -62 t-46.5 -174z" />
<glyph unicode="p" horiz-adv-x="1140" d="M117 -442v1331h295v-80q60 51 120 73.5t142 22.5q170 0 280.5 -129t110.5 -325q0 -193 -124 -330t-312 -137q-119 0 -209 49v-475h-303zM420 279q55 -60 160 -60q78 0 130 59t52 171q0 104 -46 162.5t-126 58.5q-53 0 -92.5 -19t-77.5 -63v-309z" />
<glyph unicode="q" horiz-adv-x="1130" d="M76 430q0 128 57.5 238t154.5 173.5t208 63.5q79 0 127 -18.5t106 -59.5v62h295v-1333h-303v497q-86 -69 -236 -69q-174 0 -291.5 124.5t-117.5 321.5zM379 434q0 -105 49 -160t133 -55q45 0 90.5 21.5t69.5 58.5v283q-60 88 -156 88q-85 0 -135.5 -63t-50.5 -173z" />
<glyph unicode="r" horiz-adv-x="761" d="M117 0v889h297v-144q65 86 133.5 123t183.5 37v-303q-87 19 -151 19q-115 0 -158 -60v-561h-305z" />
<glyph unicode="s" horiz-adv-x="856" d="M39 98l96 217q69 -48 148 -78t141 -30q102 0 102 59q0 22 -24 38t-62 26.5t-84 22t-92 30.5t-84 45t-62 72t-24 106q0 134 106 216.5t271 82.5q163 0 324 -84l-74 -217q-147 80 -264 80q-43 0 -67.5 -15.5t-24.5 -39.5q0 -20 19.5 -35t50.5 -24.5t71.5 -21t82.5 -23.5 t82.5 -33.5t71.5 -49t50.5 -72.5t19.5 -102q0 -129 -110.5 -206.5t-278.5 -77.5q-207 0 -385 114z" />
<glyph unicode="t" horiz-adv-x="784" d="M4 649v43l195 197v135l303 174v-309h235v-240h-235v-317q0 -103 76 -103q23 0 77 15l70 -228q-139 -32 -229 -32q-69 0 -120.5 16.5t-92.5 55.5t-62.5 110t-21.5 174v309h-195z" />
<glyph unicode="u" horiz-adv-x="1110" d="M109 276v613h305v-541q0 -112 100 -112q103 0 195 100v553h305v-889h-297v150q-166 -166 -326 -166q-135 0 -208.5 80t-73.5 212z" />
<glyph unicode="v" horiz-adv-x="976" d="M-27 889h336l183 -438l182 438h330l-492 -912h-55z" />
<glyph unicode="w" horiz-adv-x="1380" d="M-10 889h336l125 -424l211 424h55l211 -424l125 424h338l-371 -912h-55l-275 482l-274 -482h-56z" />
<glyph unicode="x" horiz-adv-x="1019" d="M12 0l314 440l-314 449h330l166 -273l170 273h321l-311 -443l311 -446h-329l-166 270l-170 -270h-322z" />
<glyph unicode="y" horiz-adv-x="997" d="M-16 889h335l183 -496l182 496h330l-629 -1331h-303l276 536z" />
<glyph unicode="z" horiz-adv-x="905" d="M31 37l411 606h-372v246h788l10 -39l-411 -604h401v-246h-817z" />
<glyph unicode="{" horiz-adv-x="665" d="M51 426v205h47q72 0 99.5 32t27.5 101v356q0 183 111 289.5t317 106.5v-238q-97 0 -138.5 -46t-41.5 -161v-311q0 -95 -34 -143t-124 -89q90 -41 124 -88t34 -143v-311q0 -114 41.5 -159.5t138.5 -45.5v-238q-206 0 -317 105.5t-111 288.5v356q0 69 -27.5 101t-99.5 32 h-47z" />
<glyph unicode="|" horiz-adv-x="583" d="M184 -442v1943h215v-1943h-215z" />
<glyph unicode="}" horiz-adv-x="665" d="M12 -219q97 0 139 45.5t42 159.5v311q0 96 33.5 143t123.5 88q-90 41 -123.5 89t-33.5 143v311q0 115 -42 161t-139 46v238q206 0 317 -106.5t111 -289.5v-356q0 -69 27.5 -101t99.5 -32h47v-205h-47q-72 0 -99.5 -32t-27.5 -101v-356q0 -183 -111 -288.5t-317 -105.5 v238z" />
<glyph unicode="~" d="M131 768q48 56 116 93.5t130 37.5q80 0 151 -41q64 -35 123 -35q85 0 158 82l102 -172q-48 -55 -115.5 -93t-129.5 -38q-75 0 -152 41q-41 23 -68.5 31t-64.5 8q-88 0 -158 -82z" />
<glyph unicode="&#xa1;" horiz-adv-x="622" d="M145 0l68 1034h199l67 -1034h-334zM152 1356q0 67 46.5 114.5t112.5 47.5q67 0 114.5 -47t47.5 -115t-47.5 -115t-114.5 -47q-66 0 -112.5 47.5t-46.5 114.5z" />
<glyph unicode="&#xa2;" horiz-adv-x="913" d="M66 440q0 201 131.5 326.5t339.5 136.5l14 162h145l-14 -170q102 -18 199 -78l-86 -211q-75 44 -133 56l-39 -443q90 9 178 60l80 -207q-126 -78 -279 -86l-14 -166h-146l15 176q-175 29 -283 146t-108 298zM356 444q0 -73 32 -125t91 -77l37 422q-74 -16 -117 -71.5 t-43 -148.5z" />
<glyph unicode="&#xa3;" horiz-adv-x="1042" d="M80 0v264h170v209h-164v14l164 166v154q0 188 115 306t333 118q150 0 295 -86l-78 -266q-103 73 -215 73q-69 0 -108 -41t-39 -110v-88h238v-240h-238v-209h432v-264h-905z" />
<glyph unicode="&#xa5;" horiz-adv-x="1210" d="M51 1208h346l217 -403l207 403h338l-317 -524h207v-197h-285v-118h285v-191h-285v-178h-307v178h-293v191h293v118h-293v197h215z" />
<glyph unicode="&#xa7;" horiz-adv-x="1032" d="M121 90l96 217q69 -48 148 -78t141 -30q102 0 102 61q0 22 -26 38.5t-67.5 28t-92 23.5t-100.5 31.5t-91.5 45.5t-67.5 71t-26 104q0 104 99 180q-62 59 -62 148q0 136 107 218.5t272 82.5q167 0 321 -82l-71 -219q-151 82 -264 82q-43 0 -68 -17t-25 -43q0 -22 27 -38.5 t69.5 -28t94.5 -24t104 -32t94.5 -46.5t69.5 -73t27 -106q0 -91 -109 -174q72 -62 72 -168q0 -131 -110.5 -209t-278.5 -78q-206 0 -385 115zM410 623q0 -16 10 -28.5t39 -24t46 -16.5t65 -18q20 -5 30 -8q45 15 45 54q0 12 -5.5 22t-20 19t-26 15t-37.5 14t-40 11.5 t-47 12.5q-59 -9 -59 -53z" />
<glyph unicode="&#xa8;" d="M162 1165q0 64 45 110t108 46q65 0 110.5 -45.5t45.5 -110.5q0 -63 -46 -108t-110 -45q-63 0 -108 45t-45 108zM555 1165q0 64 45.5 110t108.5 46q64 0 108.5 -45.5t44.5 -110.5q0 -63 -44.5 -108t-108.5 -45q-63 0 -108.5 45t-45.5 108z" />
<glyph unicode="&#xa9;" horiz-adv-x="1724" d="M102 750q0 158 60 301.5t162 247.5t242.5 165.5t295.5 61.5t295.5 -61.5t242.5 -165.5t162 -247.5t60 -301.5t-60 -301.5t-162 -247t-242.5 -165t-295.5 -61.5t-295.5 61.5t-242.5 165t-162 247t-60 301.5zM240 750q0 -177 83 -327.5t226.5 -238.5t312.5 -88t312.5 88 t227 238.5t83.5 327.5q0 178 -83.5 329t-227 238.5t-312.5 87.5q-127 0 -242 -52t-198.5 -139.5t-132.5 -209t-49 -254.5zM475 754q0 173 118.5 286t305.5 113q126 0 242 -68l-56 -151q-92 53 -184 53q-108 0 -170.5 -62.5t-62.5 -170.5t62 -170t171 -62q102 0 193 56 l55 -152q-117 -72 -250 -72q-187 0 -305.5 113.5t-118.5 286.5z" />
<glyph unicode="&#xaa;" horiz-adv-x="813" d="M63 1008q0 96 71 158.5t192 62.5q94 0 172 -43v18q0 142 -160 142q-56 0 -168 -25l-20 168q117 37 231 37q358 0 358 -326v-399h-235v61q-76 -76 -193 -76q-108 0 -178 59.5t-70 162.5zM293 1010q0 -39 25.5 -61.5t68.5 -22.5q72 0 111 51v80q-40 37 -103 37 q-42 0 -72 -23.5t-30 -60.5z" />
<glyph unicode="&#xab;" horiz-adv-x="1067" d="M94 354l215 334h275l-224 -334l224 -336h-275zM506 354l215 334h274l-223 -334l223 -336h-274z" />
<glyph unicode="&#xad;" horiz-adv-x="718" d="M96 397v215h527v-215h-527z" />
<glyph unicode="&#xae;" horiz-adv-x="790" d="M45 1169q0 149 102 254t248 105t248 -105t102 -254q0 -147 -102 -251.5t-248 -104.5t-248 104t-102 252zM115 1169q0 -122 81.5 -208.5t198.5 -86.5t199 86.5t82 208.5q0 123 -82 210t-199 87t-198.5 -87t-81.5 -210zM268 995v353q46 6 109 6q80 0 119 -33t39 -88 q0 -66 -62 -103l84 -135h-100l-62 113h-39v-113h-88zM356 1182q10 -2 25 -2q28 0 44.5 13.5t16.5 37.5q0 45 -57 45q-19 0 -29 -2v-92z" />
<glyph unicode="&#xaf;" d="M217 1038v213h590v-213h-590z" />
<glyph unicode="&#xb0;" horiz-adv-x="778" d="M154 1188q0 93 66.5 160t168.5 67t169 -67t67 -160t-67 -160t-169 -67t-168.5 67t-66.5 160zM307 1188q0 -42 23 -69t59 -27t59 27t23 69q0 41 -23.5 68.5t-58.5 27.5q-36 0 -59 -27t-23 -69z" />
<glyph unicode="&#xb4;" d="M262 1126l387 291l121 -246l-436 -182z" />
<glyph unicode="&#xb6;" horiz-adv-x="1345" d="M117 725q0 217 196 361.5t516 144.5q161 0 363 -25v-1206h-205v952q-85 9 -133 11v-963h-205v287q-139 -7 -260 44t-196.5 155t-75.5 239zM446 743q0 -88 54.5 -137.5t148.5 -52.5v399q-98 -21 -150.5 -76t-52.5 -133z" />
<glyph unicode="&#xb7;" horiz-adv-x="561" d="M121 750q0 67 47 114t113 47q67 0 114 -46.5t47 -114.5t-47 -115t-114 -47q-66 0 -113 47.5t-47 114.5z" />
<glyph unicode="&#xb8;" d="M233 -469l66 156q122 -78 215 -78q70 0 70 63q0 34 -47 57t-156 23l-10 21l71 268l113 -29l-27 -116q240 -56 240 -220q0 -98 -70 -164.5t-196 -66.5q-125 0 -269 86z" />
<glyph unicode="&#xba;" horiz-adv-x="847" d="M41 1157q0 155 104 262t279 107t279 -107t104 -262q0 -157 -103.5 -264t-279.5 -107t-279.5 107t-103.5 264zM281 1157q0 -90 37.5 -140t105.5 -50q67 0 104 49.5t37 140.5q0 90 -37 139.5t-104 49.5q-68 0 -105.5 -50t-37.5 -139z" />
<glyph unicode="&#xbb;" horiz-adv-x="1067" d="M72 18l223 336l-223 334h274l215 -334l-215 -336h-274zM483 18l224 336l-224 334h275l215 -334l-215 -336h-275z" />
<glyph unicode="&#xbf;" horiz-adv-x="825" d="M20 354q0 61 20.5 115t54 94t73.5 77t79.5 72t73 69.5t54 78.5t20.5 92v76h267v-94q0 -85 -29 -157t-71 -120.5t-83.5 -90t-70.5 -85t-29 -86.5q0 -67 46 -99t122 -32q88 0 186 37l45 -262q-154 -53 -303 -53q-219 0 -337 105.5t-118 262.5zM369 1356q0 68 47 115t114 47 q68 0 115 -47t47 -115t-47 -115t-115 -47q-67 0 -114 47t-47 115z" />
<glyph unicode="&#xc0;" horiz-adv-x="1419" d="M-20 0l706 1513h47l707 -1513h-363l-112 272h-519l-112 -272h-354zM297 1806l129 238l395 -299l-82 -131zM557 539h297l-147 360z" />
<glyph unicode="&#xc1;" horiz-adv-x="1419" d="M-20 0l706 1513h47l707 -1513h-363l-112 272h-519l-112 -272h-354zM557 539h297l-147 360zM578 1751l387 291l120 -246l-436 -182z" />
<glyph unicode="&#xc2;" horiz-adv-x="1419" d="M-20 0l706 1513h47l707 -1513h-363l-112 272h-519l-112 -272h-354zM317 1642l334 398h125l324 -398h-269l-129 170l-129 -170h-256zM557 539h297l-147 360z" />
<glyph unicode="&#xc3;" horiz-adv-x="1419" d="M-20 0l706 1513h47l707 -1513h-363l-112 272h-519l-112 -272h-354zM328 1812q48 56 115.5 94t129.5 38q81 0 152 -41q64 -35 123 -35q85 0 158 82l102 -172q-48 -55 -116 -93t-130 -38q-74 0 -151 41q-40 23 -67.5 30.5t-65.5 7.5q-89 0 -158 -81zM557 539h297l-147 360z " />
<glyph unicode="&#xc4;" horiz-adv-x="1419" d="M-20 0l706 1513h47l707 -1513h-363l-112 272h-519l-112 -272h-354zM358 1790q0 64 45.5 110t108.5 46q64 0 110 -46t46 -110q0 -63 -46 -108.5t-110 -45.5q-63 0 -108.5 45.5t-45.5 108.5zM557 539h297l-147 360zM752 1790q0 64 45 110t108 46q64 0 109 -45.5t45 -110.5 q0 -63 -45 -108.5t-109 -45.5q-63 0 -108 45.5t-45 108.5z" />
<glyph unicode="&#xc5;" horiz-adv-x="1419" d="M-20 0l659 1415q-88 22 -142.5 91.5t-54.5 156.5q0 104 75.5 180t189.5 76q115 0 190.5 -76t75.5 -180q0 -87 -54.5 -156.5t-142.5 -91.5l664 -1415h-363l-112 272h-519l-112 -272h-354zM557 539h297l-147 360zM608 1663q0 -52 28.5 -84.5t70.5 -32.5q43 0 72.5 32.5 t29.5 84.5q0 49 -29.5 83t-72.5 34q-42 0 -70.5 -32.5t-28.5 -84.5z" />
<glyph unicode="&#xc6;" horiz-adv-x="2076" d="M-23 0l1008 1501h948v-319h-600v-269h547v-303h-547v-293h600v-317h-948v254h-457l-157 -254h-394zM705 539h280v454z" />
<glyph unicode="&#xc7;" horiz-adv-x="1482" d="M113 750q0 166 60 309.5t166.5 246t260.5 161.5t334 59q248 0 469 -131l-107 -295q-182 100 -358 100q-211 0 -333 -120.5t-122 -329.5t122 -330t333 -121q92 0 191 29.5t184 81.5l104 -295q-95 -63 -218 -100t-247 -40l-12 -59q240 -56 240 -219q0 -98 -70.5 -165 t-196.5 -67q-124 0 -268 86l66 156q122 -78 215 -78q69 0 69 64q0 34 -46.5 57t-155.5 23l-11 20l49 187q-322 31 -520 244.5t-198 525.5z" />
<glyph unicode="&#xc8;" horiz-adv-x="1257" d="M164 0v1501h950v-319h-602v-269h549v-303h-549v-293h602v-317h-950zM227 1806l129 238l396 -299l-82 -131z" />
<glyph unicode="&#xc9;" horiz-adv-x="1257" d="M164 0v1501h950v-319h-602v-269h549v-303h-549v-293h602v-317h-950zM508 1751l387 291l121 -246l-436 -182z" />
<glyph unicode="&#xca;" horiz-adv-x="1257" d="M164 0v1501h950v-319h-602v-269h549v-303h-549v-293h602v-317h-950zM248 1642l334 398h125l323 -398h-268l-129 170l-129 -170h-256z" />
<glyph unicode="&#xcb;" horiz-adv-x="1257" d="M164 0v1501h950v-319h-602v-269h549v-303h-549v-293h602v-317h-950zM289 1790q0 64 45 110t108 46q64 0 110 -46t46 -110q0 -63 -46 -108.5t-110 -45.5q-63 0 -108 45.5t-45 108.5zM682 1790q0 64 45.5 110t108.5 46q64 0 108.5 -45.5t44.5 -110.5q0 -63 -44.5 -108.5 t-108.5 -45.5q-63 0 -108.5 45.5t-45.5 108.5z" />
<glyph unicode="&#xcc;" horiz-adv-x="696" d="M-63 1806l129 238l395 -299l-82 -131zM174 0v1501h348v-1501h-348z" />
<glyph unicode="&#xcd;" horiz-adv-x="696" d="M174 0v1501h348v-1501h-348zM217 1782l387 291l121 -246l-436 -182z" />
<glyph unicode="&#xce;" horiz-adv-x="696" d="M-43 1642l334 398h125l323 -398h-268l-129 170l-129 -170h-256zM174 0v1501h348v-1501h-348z" />
<glyph unicode="&#xcf;" horiz-adv-x="696" d="M-2 1790q0 64 45.5 110t108.5 46q64 0 109.5 -45.5t45.5 -110.5q0 -63 -45.5 -108.5t-109.5 -45.5q-63 0 -108.5 45.5t-45.5 108.5zM174 0v1501h348v-1501h-348zM391 1790q0 64 45.5 110t108.5 46q64 0 108.5 -45.5t44.5 -110.5q0 -63 -44.5 -108.5t-108.5 -45.5 q-63 0 -108.5 45.5t-45.5 108.5z" />
<glyph unicode="&#xd0;" horiz-adv-x="1634" d="M55 627v276h150v584q232 24 444 24q228 0 404.5 -56.5t287 -158t166.5 -236t56 -296.5q0 -134 -33 -250.5t-104 -213.5t-176 -166t-254 -107.5t-332 -38.5t-459 24v615h-150zM553 307q84 -8 166 -8q238 0 355.5 123t117.5 342q0 206 -128 321t-368 115q-72 0 -143 -8 v-289h233v-276h-233v-320z" />
<glyph unicode="&#xd1;" horiz-adv-x="1615" d="M164 0v1522l47 8l893 -807v778h348v-1524l-35 -6l-905 813v-784h-348zM426 1812q48 56 116 94t130 38q80 0 151 -41q64 -35 123 -35q85 0 158 82l102 -172q-48 -55 -115.5 -93t-129.5 -38q-75 0 -152 41q-40 23 -67.5 30.5t-65.5 7.5q-89 0 -158 -81z" />
<glyph unicode="&#xd2;" horiz-adv-x="1763" d="M113 750q0 164 56.5 307.5t156.5 246.5t246 162.5t317 59.5q227 0 401.5 -102t267.5 -277.5t93 -396.5q0 -164 -57 -306.5t-157.5 -246t-246.5 -163t-316 -59.5q-171 0 -314.5 59.5t-241 163t-151.5 246t-54 306.5zM469 1806l129 238l395 -299l-82 -131zM483 750 q0 -203 110.5 -334t287.5 -131t287 131t110 334q0 204 -110 334t-287 130t-287.5 -130t-110.5 -334z" />
<glyph unicode="&#xd3;" horiz-adv-x="1763" d="M113 750q0 164 56.5 307.5t156.5 246.5t246 162.5t317 59.5q227 0 401.5 -102t267.5 -277.5t93 -396.5q0 -164 -57 -306.5t-157.5 -246t-246.5 -163t-316 -59.5q-171 0 -314.5 59.5t-241 163t-151.5 246t-54 306.5zM483 750q0 -203 110.5 -334t287.5 -131t287 131 t110 334q0 204 -110 334t-287 130t-287.5 -130t-110.5 -334zM750 1751l387 291l120 -246l-436 -182z" />
<glyph unicode="&#xd4;" horiz-adv-x="1763" d="M113 750q0 164 56.5 307.5t156.5 246.5t246 162.5t317 59.5q227 0 401.5 -102t267.5 -277.5t93 -396.5q0 -164 -57 -306.5t-157.5 -246t-246.5 -163t-316 -59.5q-171 0 -314.5 59.5t-241 163t-151.5 246t-54 306.5zM483 750q0 -203 110.5 -334t287.5 -131t287 131 t110 334q0 204 -110 334t-287 130t-287.5 -130t-110.5 -334zM489 1642l334 398h125l324 -398h-268l-130 170l-129 -170h-256z" />
<glyph unicode="&#xd5;" horiz-adv-x="1763" d="M113 750q0 164 56.5 307.5t156.5 246.5t246 162.5t317 59.5q227 0 401.5 -102t267.5 -277.5t93 -396.5q0 -164 -57 -306.5t-157.5 -246t-246.5 -163t-316 -59.5q-171 0 -314.5 59.5t-241 163t-151.5 246t-54 306.5zM483 750q0 -203 110.5 -334t287.5 -131t287 131 t110 334q0 204 -110 334t-287 130t-287.5 -130t-110.5 -334zM500 1812q48 56 115.5 94t129.5 38q81 0 152 -41q64 -35 123 -35q85 0 158 82l102 -172q-48 -55 -116 -93t-130 -38q-74 0 -151 41q-40 23 -67.5 30.5t-65.5 7.5q-89 0 -158 -81z" />
<glyph unicode="&#xd6;" horiz-adv-x="1763" d="M113 750q0 164 56.5 307.5t156.5 246.5t246 162.5t317 59.5q227 0 401.5 -102t267.5 -277.5t93 -396.5q0 -164 -57 -306.5t-157.5 -246t-246.5 -163t-316 -59.5q-171 0 -314.5 59.5t-241 163t-151.5 246t-54 306.5zM483 750q0 -203 110.5 -334t287.5 -131t287 131 t110 334q0 204 -110 334t-287 130t-287.5 -130t-110.5 -334zM530 1790q0 64 45.5 110t108.5 46q64 0 110 -46t46 -110q0 -63 -46 -108.5t-110 -45.5q-63 0 -108.5 45.5t-45.5 108.5zM924 1790q0 64 45 110t108 46q64 0 109 -45.5t45 -110.5q0 -63 -45 -108.5t-109 -45.5 q-63 0 -108 45.5t-45 108.5z" />
<glyph unicode="&#xd7;" horiz-adv-x="937" d="M129 389l193 201l-193 201l150 149l190 -199l190 199l150 -149l-195 -201l195 -201l-150 -149l-190 196l-190 -196z" />
<glyph unicode="&#xd8;" horiz-adv-x="1763" d="M72 166l157 147q-116 188 -116 437q0 164 56.5 307.5t156.5 246.5t246 162.5t317 59.5q281 0 477 -154l147 139l177 -176l-158 -147q119 -188 119 -438q0 -164 -57 -306.5t-157.5 -246t-246.5 -163t-316 -59.5q-279 0 -477 152l-149 -139zM483 750q0 -94 25 -177l604 564 q-96 77 -231 77q-177 0 -287.5 -130t-110.5 -334zM649 362q96 -77 232 -77q177 0 287 131t110 334q0 96 -27 176z" />
<glyph unicode="&#xd9;" horiz-adv-x="1562" d="M147 610v891h349v-866q0 -164 71 -253t217 -89q144 0 215.5 89t71.5 253v866h348v-891q0 -310 -168.5 -472.5t-474.5 -162.5q-304 0 -466.5 162t-162.5 473zM371 1806l129 238l395 -299l-82 -131z" />
<glyph unicode="&#xda;" horiz-adv-x="1562" d="M147 610v891h349v-866q0 -164 71 -253t217 -89q144 0 215.5 89t71.5 253v866h348v-891q0 -310 -168.5 -472.5t-474.5 -162.5q-304 0 -466.5 162t-162.5 473zM651 1751l387 291l121 -246l-436 -182z" />
<glyph unicode="&#xdb;" horiz-adv-x="1562" d="M147 610v891h349v-866q0 -164 71 -253t217 -89q144 0 215.5 89t71.5 253v866h348v-891q0 -310 -168.5 -472.5t-474.5 -162.5q-304 0 -466.5 162t-162.5 473zM391 1642l334 398h125l324 -398h-269l-129 170l-129 -170h-256z" />
<glyph unicode="&#xdc;" horiz-adv-x="1562" d="M147 610v891h349v-866q0 -164 71 -253t217 -89q144 0 215.5 89t71.5 253v866h348v-891q0 -310 -168.5 -472.5t-474.5 -162.5q-304 0 -466.5 162t-162.5 473zM432 1790q0 64 45.5 110t108.5 46q64 0 109.5 -45.5t45.5 -110.5q0 -63 -45.5 -108.5t-109.5 -45.5 q-63 0 -108.5 45.5t-45.5 108.5zM825 1790q0 64 45.5 110t108.5 46q64 0 109 -45.5t45 -110.5q0 -63 -45 -108.5t-109 -45.5q-63 0 -108.5 45.5t-45.5 108.5z" />
<glyph unicode="&#xdd;" horiz-adv-x="1445" d="M20 1501h400l307 -575l307 575h391l-528 -907v-594h-348v596zM592 1751l387 291l121 -246l-436 -182z" />
<glyph unicode="&#xde;" horiz-adv-x="1323" d="M164 0v1501h348v-221h70q159 0 286.5 -41t210 -113t126.5 -169.5t44 -211.5q0 -239 -159 -385.5t-449 -146.5q-35 0 -129 4v-217h-348zM512 518q98 -4 104 -4q137 0 207 57.5t70 167.5q0 96 -64 155.5t-188 59.5q-58 0 -129 -8v-428z" />
<glyph unicode="&#xdf;" horiz-adv-x="1214" d="M135 0v1073q0 208 105 325.5t311 117.5q72 0 154 -19l-25 -256q-36 8 -94 8q-73 0 -110.5 -43t-37.5 -157v-160h760l10 -25l-278 -407q223 -88 223 -287q0 -110 -69 -194.5t-178 -126.5t-238 -42q-48 0 -123 11l22 237q47 -8 99 -8q93 0 138.5 32.5t45.5 90.5 q0 48 -41 78.5t-125 30.5q-40 0 -74 -5l-14 29l205 340h-363v-643h-303z" />
<glyph unicode="&#xe0;" horiz-adv-x="985" d="M53 260q0 119 87.5 197t238.5 78q116 0 213 -54v23q0 176 -199 176q-75 0 -209 -31l-26 211q148 45 288 45q447 0 447 -407v-498h-293v76q-48 -47 -104.5 -69.5t-137.5 -22.5q-133 0 -219 74t-86 202zM94 1182l129 237l395 -299l-81 -131zM338 262q0 -49 31.5 -77.5 t85.5 -28.5q89 0 137 63v100q-54 48 -127 48q-52 0 -89.5 -30t-37.5 -75z" />
<glyph unicode="&#xe1;" horiz-adv-x="985" d="M53 260q0 119 87.5 197t238.5 78q116 0 213 -54v23q0 176 -199 176q-75 0 -209 -31l-26 211q148 45 288 45q447 0 447 -407v-498h-293v76q-48 -47 -104.5 -69.5t-137.5 -22.5q-133 0 -219 74t-86 202zM338 262q0 -49 31.5 -77.5t85.5 -28.5q89 0 137 63v100 q-54 48 -127 48q-52 0 -89.5 -30t-37.5 -75zM375 1126l387 291l121 -246l-437 -182z" />
<glyph unicode="&#xe2;" horiz-adv-x="985" d="M53 260q0 119 87.5 197t238.5 78q116 0 213 -54v23q0 176 -199 176q-75 0 -209 -31l-26 211q148 45 288 45q447 0 447 -407v-498h-293v76q-48 -47 -104.5 -69.5t-137.5 -22.5q-133 0 -219 74t-86 202zM115 1018l334 397h124l324 -397h-268l-129 170l-129 -170h-256z M338 262q0 -49 31.5 -77.5t85.5 -28.5q89 0 137 63v100q-54 48 -127 48q-52 0 -89.5 -30t-37.5 -75z" />
<glyph unicode="&#xe3;" horiz-adv-x="985" d="M53 260q0 119 87.5 197t238.5 78q116 0 213 -54v23q0 176 -199 176q-75 0 -209 -31l-26 211q148 45 288 45q447 0 447 -407v-498h-293v76q-48 -47 -104.5 -69.5t-137.5 -22.5q-133 0 -219 74t-86 202zM125 1188q48 56 116 93.5t130 37.5q80 0 151 -41q64 -35 123 -35 q85 0 158 82l102 -172q-48 -55 -116 -93t-130 -38q-74 0 -151 41q-41 23 -68.5 31t-64.5 8q-88 0 -158 -82zM338 262q0 -49 31.5 -77.5t85.5 -28.5q89 0 137 63v100q-54 48 -127 48q-52 0 -89.5 -30t-37.5 -75z" />
<glyph unicode="&#xe4;" horiz-adv-x="985" d="M53 260q0 119 87.5 197t238.5 78q116 0 213 -54v23q0 176 -199 176q-75 0 -209 -31l-26 211q148 45 288 45q447 0 447 -407v-498h-293v76q-48 -47 -104.5 -69.5t-137.5 -22.5q-133 0 -219 74t-86 202zM156 1165q0 64 45 110t108 46q65 0 110.5 -45.5t45.5 -110.5 q0 -63 -46 -108t-110 -45q-63 0 -108 45t-45 108zM338 262q0 -49 31.5 -77.5t85.5 -28.5q89 0 137 63v100q-54 48 -127 48q-52 0 -89.5 -30t-37.5 -75zM549 1165q0 64 45 110t108 46q64 0 109 -45.5t45 -110.5q0 -63 -45 -108t-109 -45q-63 0 -108 45t-45 108z" />
<glyph unicode="&#xe5;" horiz-adv-x="985" d="M53 260q0 119 87.5 197t238.5 78q116 0 213 -54v23q0 176 -199 176q-75 0 -209 -31l-26 211q148 45 288 45q447 0 447 -407v-498h-293v76q-48 -47 -104.5 -69.5t-137.5 -22.5q-133 0 -219 74t-86 202zM242 1257q0 104 75 180t189 76q115 0 190.5 -76t75.5 -180 t-75.5 -180t-190.5 -76q-114 0 -189 76t-75 180zM338 262q0 -49 31.5 -77.5t85.5 -28.5q89 0 137 63v100q-54 48 -127 48q-52 0 -89.5 -30t-37.5 -75zM408 1257q0 -52 28 -84t70 -32q44 0 73 32t29 84q0 49 -29.5 83t-72.5 34q-42 0 -70 -32.5t-28 -84.5z" />
<glyph unicode="&#xe6;" horiz-adv-x="1531" d="M53 260q0 119 87.5 197t238.5 78q115 0 215 -54v23q0 176 -199 176q-75 0 -209 -31l-26 211q144 45 278 45q232 0 336 -125q125 125 297 125q193 0 301.5 -122.5t108.5 -305.5q0 -78 -6 -125h-582q14 -75 67 -109t158 -34q108 0 268 47l29 -223q-191 -49 -319 -49 q-236 0 -369 163q-151 -163 -342 -163q-149 0 -240.5 73t-91.5 203zM338 272q0 -49 32 -76.5t85 -27.5q54 0 105 29.5t77 85.5q-63 96 -180 96q-47 0 -83 -30.5t-36 -76.5zM897 518h320q-6 77 -48.5 117.5t-107.5 40.5q-68 0 -111 -40.5t-53 -117.5z" />
<glyph unicode="&#xe7;" horiz-adv-x="892" d="M66 440q0 94 33.5 177.5t96.5 148t164 102t228 37.5q153 0 293 -88l-88 -203q-99 52 -199 52q-99 0 -163 -55.5t-64 -166.5q0 -103 67.5 -162t171.5 -59q109 0 197 51l78 -202q-140 -88 -293 -88h-25l-14 -68q127 -30 183 -85t56 -134q0 -98 -70 -165t-196 -67 q-124 0 -268 86l65 156q122 -78 216 -78q69 0 69 64q0 34 -47 57t-156 23l-10 20l53 203q-123 24 -210 89.5t-127.5 155.5t-40.5 199z" />
<glyph unicode="&#xe8;" horiz-adv-x="1005" d="M66 440q0 90 30.5 172.5t87.5 148.5t147 105t201 39q136 0 233 -59t143 -154.5t46 -214.5q0 -78 -6 -125h-581q14 -75 66 -109t157 -34q106 0 270 47l29 -223q-194 -49 -330 -49q-127 0 -223.5 36t-154 99.5t-86.5 144t-29 176.5zM117 1182l129 237l395 -299l-82 -131z M369 518h321q-7 77 -50 117.5t-108 40.5q-68 0 -110.5 -40.5t-52.5 -117.5z" />
<glyph unicode="&#xe9;" horiz-adv-x="1005" d="M66 440q0 90 30.5 172.5t87.5 148.5t147 105t201 39q136 0 233 -59t143 -154.5t46 -214.5q0 -78 -6 -125h-581q14 -75 66 -109t157 -34q106 0 270 47l29 -223q-194 -49 -330 -49q-127 0 -223.5 36t-154 99.5t-86.5 144t-29 176.5zM369 518h321q-7 77 -50 117.5t-108 40.5 q-68 0 -110.5 -40.5t-52.5 -117.5zM397 1126l387 291l121 -246l-436 -182z" />
<glyph unicode="&#xea;" horiz-adv-x="1005" d="M66 440q0 90 30.5 172.5t87.5 148.5t147 105t201 39q136 0 233 -59t143 -154.5t46 -214.5q0 -78 -6 -125h-581q14 -75 66 -109t157 -34q106 0 270 47l29 -223q-194 -49 -330 -49q-127 0 -223.5 36t-154 99.5t-86.5 144t-29 176.5zM137 1018l334 397h125l324 -397h-269 l-129 170l-129 -170h-256zM369 518h321q-7 77 -50 117.5t-108 40.5q-68 0 -110.5 -40.5t-52.5 -117.5z" />
<glyph unicode="&#xeb;" horiz-adv-x="1005" d="M66 440q0 90 30.5 172.5t87.5 148.5t147 105t201 39q136 0 233 -59t143 -154.5t46 -214.5q0 -78 -6 -125h-581q14 -75 66 -109t157 -34q106 0 270 47l29 -223q-194 -49 -330 -49q-127 0 -223.5 36t-154 99.5t-86.5 144t-29 176.5zM178 1165q0 64 45.5 110t108.5 46 q64 0 109.5 -45.5t45.5 -110.5q0 -63 -45.5 -108t-109.5 -45q-63 0 -108.5 45t-45.5 108zM369 518h321q-7 77 -50 117.5t-108 40.5q-68 0 -110.5 -40.5t-52.5 -117.5zM571 1165q0 64 45.5 110t108.5 46q64 0 109 -45.5t45 -110.5q0 -63 -45 -108t-109 -45q-63 0 -108.5 45 t-45.5 108z" />
<glyph unicode="&#xec;" horiz-adv-x="557" d="M-133 1182l129 237l395 -299l-82 -131zM127 0v889h305v-889h-305z" />
<glyph unicode="&#xed;" horiz-adv-x="557" d="M127 0v889h305v-889h-305zM147 1126l388 291l120 -246l-436 -182z" />
<glyph unicode="&#xee;" horiz-adv-x="557" d="M-113 1018l334 397h125l324 -397h-269l-129 170l-129 -170h-256zM127 0v889h305v-889h-305z" />
<glyph unicode="&#xef;" horiz-adv-x="557" d="M-72 1165q0 64 45.5 110t108.5 46q64 0 110 -45.5t46 -110.5q0 -63 -46 -108t-110 -45q-63 0 -108.5 45t-45.5 108zM127 0v889h305v-889h-305zM322 1165q0 64 45 110t108 46q64 0 109 -45.5t45 -110.5q0 -63 -45 -108t-109 -45q-63 0 -108 45t-45 108z" />
<glyph unicode="&#xf0;" horiz-adv-x="1107" d="M76 451q0 92 25.5 172.5t75 143.5t129.5 99.5t181 36.5q124 0 207 -61q-57 122 -202 241l-158 -131l-117 146l113 98q-101 59 -191 88l117 242q170 -77 281 -150l135 119l127 -156l-103 -84q336 -300 336 -739q0 -243 -127 -392t-350 -149q-117 0 -210 40t-150.5 107.5 t-88 151.5t-30.5 177zM377 457q0 -112 49.5 -183t136.5 -71q89 0 135.5 65.5t46.5 177.5q0 111 -52 173.5t-134 62.5q-80 0 -131 -59.5t-51 -165.5z" />
<glyph unicode="&#xf1;" horiz-adv-x="1114" d="M117 0v889h297v-160q89 91 168 133.5t163 42.5q134 0 205.5 -80t71.5 -215v-610h-305v541q0 62 -23.5 87t-70.5 25q-104 0 -201 -106v-547h-305zM188 1188q48 56 116 93.5t130 37.5q81 0 152 -41q64 -35 123 -35q84 0 157 82l103 -172q-48 -55 -116 -93t-130 -38 q-75 0 -152 41q-41 23 -68.5 31t-64.5 8q-87 0 -157 -82z" />
<glyph unicode="&#xf2;" horiz-adv-x="1107" d="M66 444q0 126 56 230t166.5 167.5t256.5 63.5q218 0 347.5 -133t129.5 -328q0 -126 -55.5 -229.5t-165.5 -167t-256 -63.5t-256.5 63t-166.5 167t-56 230zM141 1182l129 237l396 -299l-82 -131zM367 444q0 -112 46.5 -173.5t131.5 -61.5q83 0 129.5 61.5t46.5 173.5 t-46.5 174t-129.5 62q-85 0 -131.5 -62t-46.5 -174z" />
<glyph unicode="&#xf3;" horiz-adv-x="1107" d="M66 444q0 126 56 230t166.5 167.5t256.5 63.5q218 0 347.5 -133t129.5 -328q0 -126 -55.5 -229.5t-165.5 -167t-256 -63.5t-256.5 63t-166.5 167t-56 230zM367 444q0 -112 46.5 -173.5t131.5 -61.5q83 0 129.5 61.5t46.5 173.5t-46.5 174t-129.5 62q-85 0 -131.5 -62 t-46.5 -174zM422 1126l387 291l121 -246l-436 -182z" />
<glyph unicode="&#xf4;" horiz-adv-x="1107" d="M66 444q0 126 56 230t166.5 167.5t256.5 63.5q218 0 347.5 -133t129.5 -328q0 -126 -55.5 -229.5t-165.5 -167t-256 -63.5t-256.5 63t-166.5 167t-56 230zM162 1018l334 397h125l323 -397h-268l-129 170l-129 -170h-256zM367 444q0 -112 46.5 -173.5t131.5 -61.5 q83 0 129.5 61.5t46.5 173.5t-46.5 174t-129.5 62q-85 0 -131.5 -62t-46.5 -174z" />
<glyph unicode="&#xf5;" horiz-adv-x="1107" d="M66 444q0 126 56 230t166.5 167.5t256.5 63.5q218 0 347.5 -133t129.5 -328q0 -126 -55.5 -229.5t-165.5 -167t-256 -63.5t-256.5 63t-166.5 167t-56 230zM172 1188q48 56 116 93.5t130 37.5q80 0 151 -41q64 -35 123 -35q85 0 158 82l102 -172q-48 -55 -115.5 -93 t-129.5 -38q-75 0 -152 41q-41 23 -68.5 31t-64.5 8q-88 0 -158 -82zM367 444q0 -112 46.5 -173.5t131.5 -61.5q83 0 129.5 61.5t46.5 173.5t-46.5 174t-129.5 62q-85 0 -131.5 -62t-46.5 -174z" />
<glyph unicode="&#xf6;" horiz-adv-x="1107" d="M66 444q0 126 56 230t166.5 167.5t256.5 63.5q218 0 347.5 -133t129.5 -328q0 -126 -55.5 -229.5t-165.5 -167t-256 -63.5t-256.5 63t-166.5 167t-56 230zM203 1165q0 64 45 110t108 46q64 0 110 -45.5t46 -110.5q0 -63 -46 -108t-110 -45q-63 0 -108 45t-45 108z M367 444q0 -112 46.5 -173.5t131.5 -61.5q83 0 129.5 61.5t46.5 173.5t-46.5 174t-129.5 62q-85 0 -131.5 -62t-46.5 -174zM596 1165q0 64 45.5 110t108.5 46q64 0 108.5 -45.5t44.5 -110.5q0 -63 -44.5 -108t-108.5 -45q-63 0 -108.5 45t-45.5 108z" />
<glyph unicode="&#xf7;" horiz-adv-x="937" d="M123 487v205h692v-205h-692zM336 291q0 55 39 94t94 39t94 -39t39 -94t-39 -94t-94 -39t-94 39t-39 94zM336 889q0 55 39 94t94 39t94 -39t39 -94t-39 -94t-94 -39t-94 39t-39 94z" />
<glyph unicode="&#xf8;" horiz-adv-x="1087" d="M66 63l96 93q-96 122 -96 288q0 126 56 230t166.5 167.5t256.5 63.5q180 0 301 -94l98 94l78 -80l-96 -92q96 -122 96 -289q0 -126 -55.5 -229.5t-165.5 -167t-256 -63.5q-174 0 -303 92l-97 -92zM367 444q0 -51 8 -84l287 273q-47 47 -117 47q-85 0 -131.5 -62 t-46.5 -174zM426 254q48 -45 119 -45q83 0 129.5 61.5t46.5 173.5q0 48 -8 84z" />
<glyph unicode="&#xf9;" horiz-adv-x="1110" d="M109 276v613h305v-541q0 -112 100 -112q103 0 195 100v553h305v-889h-297v150q-166 -166 -326 -166q-135 0 -208.5 80t-73.5 212zM150 1182l129 237l395 -299l-82 -131z" />
<glyph unicode="&#xfa;" horiz-adv-x="1110" d="M109 276v613h305v-541q0 -112 100 -112q103 0 195 100v553h305v-889h-297v150q-166 -166 -326 -166q-135 0 -208.5 80t-73.5 212zM430 1126l387 291l121 -246l-436 -182z" />
<glyph unicode="&#xfb;" horiz-adv-x="1110" d="M109 276v613h305v-541q0 -112 100 -112q103 0 195 100v553h305v-889h-297v150q-166 -166 -326 -166q-135 0 -208.5 80t-73.5 212zM170 1018l334 397h125l323 -397h-268l-129 170l-129 -170h-256z" />
<glyph unicode="&#xfc;" horiz-adv-x="1110" d="M109 276v613h305v-541q0 -112 100 -112q103 0 195 100v553h305v-889h-297v150q-166 -166 -326 -166q-135 0 -208.5 80t-73.5 212zM211 1165q0 64 45.5 110t108.5 46q64 0 109.5 -45.5t45.5 -110.5q0 -63 -45.5 -108t-109.5 -45q-63 0 -108.5 45t-45.5 108zM604 1165 q0 64 45.5 110t108.5 46q64 0 108.5 -45.5t44.5 -110.5q0 -63 -44.5 -108t-108.5 -45q-63 0 -108.5 45t-45.5 108z" />
<glyph unicode="&#xfd;" horiz-adv-x="997" d="M-16 889h335l183 -496l182 496h330l-629 -1331h-303l276 536zM367 1126l387 291l120 -246l-436 -182z" />
<glyph unicode="&#xfe;" horiz-adv-x="1140" d="M117 -442v1943h305v-686q59 47 117 68.5t135 21.5q170 0 280.5 -129t110.5 -325q0 -193 -124 -330t-312 -137q-117 0 -207 49v-475h-305zM422 279q55 -60 158 -60q78 0 130 59t52 171q0 104 -46 162.5t-126 58.5q-52 0 -91 -19t-77 -63v-309z" />
<glyph unicode="&#xff;" horiz-adv-x="997" d="M-16 889h335l183 -496l182 496h330l-629 -1331h-303l276 536zM147 1165q0 64 45.5 110t108.5 46q65 0 110.5 -45.5t45.5 -110.5q0 -63 -46 -108t-110 -45q-63 0 -108.5 45t-45.5 108zM541 1165q0 64 45 110t108 46q64 0 109 -45.5t45 -110.5q0 -63 -45 -108t-109 -45 q-63 0 -108 45t-45 108z" />
<glyph unicode="&#x152;" horiz-adv-x="2195" d="M113 735q0 167 58 308t167 245.5t276.5 163.5t376.5 59q134 0 291 -10h770v-319h-600v-269h547v-303h-547v-293h600v-317h-756q-150 -12 -290 -12q-209 0 -379 57.5t-281.5 158t-172 236.5t-60.5 295zM483 735q0 -200 134.5 -318t343.5 -118q37 0 143 8v885q-84 8 -166 8 q-207 0 -331 -126.5t-124 -338.5z" />
<glyph unicode="&#x153;" horiz-adv-x="1648" d="M66 444q0 126 56 230t164.5 167.5t248.5 63.5q103 0 189 -39t146 -108q127 147 328 147q193 0 301.5 -122.5t108.5 -305.5q0 -78 -6 -125h-580q12 -75 64.5 -109t158.5 -34q108 0 268 47l29 -223q-191 -49 -319 -49q-234 0 -359 141q-128 -141 -329 -141 q-140 0 -248.5 63t-164.5 167t-56 230zM367 444q0 -112 46.5 -173.5t129.5 -61.5q85 0 131.5 61.5t46.5 173.5t-46.5 174t-131.5 62q-83 0 -129.5 -62t-46.5 -174zM1024 518h319q-6 77 -48 117.5t-107 40.5q-68 0 -111 -40.5t-53 -117.5z" />
<glyph unicode="&#x178;" horiz-adv-x="1445" d="M20 1501h400l307 -575l307 575h391l-528 -907v-594h-348v596zM373 1790q0 64 45 110t108 46q64 0 110 -46t46 -110q0 -63 -46 -108.5t-110 -45.5q-63 0 -108 45.5t-45 108.5zM766 1790q0 64 45.5 110t108.5 46q64 0 108.5 -45.5t44.5 -110.5q0 -63 -44.5 -108.5 t-108.5 -45.5q-63 0 -108.5 45.5t-45.5 108.5z" />
<glyph unicode="&#x2c6;" d="M127 1018l334 397h125l323 -397h-268l-129 170l-129 -170h-256z" />
<glyph unicode="&#x2dc;" d="M131 1188q48 56 116 93.5t130 37.5q80 0 151 -41q64 -35 123 -35q85 0 158 82l102 -172q-48 -55 -115.5 -93t-129.5 -38q-75 0 -152 41q-41 23 -68.5 31t-64.5 8q-88 0 -158 -82z" />
<glyph unicode="&#x2000;" horiz-adv-x="1036" />
<glyph unicode="&#x2001;" horiz-adv-x="2073" />
<glyph unicode="&#x2002;" horiz-adv-x="1036" />
<glyph unicode="&#x2003;" horiz-adv-x="2073" />
<glyph unicode="&#x2004;" horiz-adv-x="691" />
<glyph unicode="&#x2005;" horiz-adv-x="518" />
<glyph unicode="&#x2006;" horiz-adv-x="345" />
<glyph unicode="&#x2007;" horiz-adv-x="345" />
<glyph unicode="&#x2008;" horiz-adv-x="259" />
<glyph unicode="&#x2009;" horiz-adv-x="414" />
<glyph unicode="&#x200a;" horiz-adv-x="115" />
<glyph unicode="&#x2010;" horiz-adv-x="718" d="M96 397v215h527v-215h-527z" />
<glyph unicode="&#x2011;" horiz-adv-x="718" d="M96 397v215h527v-215h-527z" />
<glyph unicode="&#x2012;" horiz-adv-x="718" d="M96 397v215h527v-215h-527z" />
<glyph unicode="&#x2013;" d="M102 416v178h820v-178h-820z" />
<glyph unicode="&#x2014;" horiz-adv-x="1536" d="M102 416v178h1332v-178h-1332z" />
<glyph unicode="&#x2018;" horiz-adv-x="434" d="M66 1194q0 100 68 192.5t175 139.5l25 -41q-86 -74 -123 -178q66 -3 107.5 -44.5t41.5 -99.5q0 -57 -41 -98t-98 -41q-72 0 -113.5 48t-41.5 122z" />
<glyph unicode="&#x2019;" horiz-adv-x="434" d="M76 1386q0 57 40 98.5t97 41.5q72 0 114 -48t42 -122q0 -99 -68 -192t-174 -140l-27 41q86 74 123 178q-66 3 -106.5 44t-40.5 99z" />
<glyph unicode="&#x201a;" horiz-adv-x="532" d="M121 160q0 57 40 98t97 41q72 0 114 -48t42 -122q0 -99 -68 -192t-174 -140l-27 41q86 74 123 178q-66 3 -106.5 44.5t-40.5 99.5z" />
<glyph unicode="&#x201c;" horiz-adv-x="794" d="M66 1194q0 100 68 192.5t175 139.5l25 -41q-86 -74 -123 -178q66 -3 107.5 -44.5t41.5 -99.5q0 -57 -41 -98t-98 -41q-72 0 -113.5 48t-41.5 122zM426 1194q0 99 68 192t174 140l26 -41q-86 -74 -123 -178q66 -3 107 -44.5t41 -99.5q0 -57 -40 -98t-97 -41q-72 0 -114 48 t-42 122z" />
<glyph unicode="&#x201d;" horiz-adv-x="794" d="M76 1386q0 57 40 98.5t97 41.5q72 0 114 -48t42 -122q0 -99 -68 -192t-174 -140l-27 41q86 74 123 178q-66 3 -106.5 44t-40.5 99zM434 1386q0 57 41 98.5t98 41.5q72 0 114 -48t42 -122q0 -99 -68 -192t-176 -140l-24 41q86 74 123 178q-66 3 -108 44t-42 99z" />
<glyph unicode="&#x201e;" horiz-adv-x="892" d="M121 160q0 57 40 98t97 41q72 0 114 -48t42 -122q0 -99 -68 -192t-174 -140l-27 41q86 74 123 178q-66 3 -106.5 44.5t-40.5 99.5zM479 160q0 57 41 98t98 41q72 0 114 -48t42 -122q0 -99 -68 -192t-176 -140l-24 41q86 74 123 178q-66 3 -108 44.5t-42 99.5z" />
<glyph unicode="&#x2022;" horiz-adv-x="987" d="M111 750q0 163 111.5 277t271.5 114q159 0 271 -114.5t112 -276.5q0 -161 -112.5 -275.5t-270.5 -114.5q-159 0 -271 114t-112 276z" />
<glyph unicode="&#x2026;" horiz-adv-x="1724" d="M141 145q0 67 47 114.5t113 47.5q67 0 114.5 -47.5t47.5 -114.5t-47 -114t-115 -47q-66 0 -113 47t-47 114zM702 145q0 67 47 114.5t113 47.5q68 0 115 -47.5t47 -114.5t-47 -114t-115 -47q-66 0 -113 47t-47 114zM1264 145q0 67 46.5 114.5t112.5 47.5q67 0 114.5 -47.5 t47.5 -114.5t-47 -114t-115 -47q-66 0 -112.5 47t-46.5 114z" />
<glyph unicode="&#x202f;" horiz-adv-x="414" />
<glyph unicode="&#x2039;" horiz-adv-x="671" d="M94 354l215 334h275l-224 -334l224 -336h-275z" />
<glyph unicode="&#x203a;" horiz-adv-x="671" d="M86 18l223 336l-223 334h274l215 -334l-215 -336h-274z" />
<glyph unicode="&#x205f;" horiz-adv-x="518" />
<glyph unicode="&#x20ac;" horiz-adv-x="1325" d="M57 381v170h129q-2 16 -2 49q0 39 2 55h-129v170h164q66 183 229.5 294.5t387.5 111.5q203 0 381 -111l-99 -229q-139 76 -278 76q-218 0 -305 -142h464v-170h-518q-2 -14 -2 -53q0 -35 2 -51h518v-170h-462q88 -141 309 -141q155 0 285 79l92 -229q-80 -52 -182.5 -83.5 t-204.5 -31.5q-226 0 -389.5 111t-227.5 295h-164z" />
<glyph unicode="&#x2122;" horiz-adv-x="1056" d="M51 1380v121h398v-121h-136v-344h-127v344h-135zM504 1036l22 467l17 2l211 -250l209 250l14 -2l22 -467h-114l-6 207l-121 -139h-13l-122 139l-5 -207h-114z" />
<glyph unicode="&#x25fc;" horiz-adv-x="890" d="M0 0v891h891v-891h-891z" />
<glyph unicode="&#xfb01;" horiz-adv-x="1341" d="M39 649v43l190 197v184q0 208 105 325.5t311 117.5q72 0 154 -19l-25 -256q-36 8 -94 8q-73 0 -110.5 -43t-37.5 -157v-160h240v-240h-240v-649h-303v649h-190zM893 1196q0 71 50 121.5t120 50.5t120 -50.5t50 -121.5q0 -70 -49.5 -120t-120.5 -50t-120.5 50t-49.5 120z M909 0v889h305v-889h-305z" />
<glyph unicode="&#xfb02;" horiz-adv-x="1318" d="M39 649v43l190 197v184q0 208 105 325.5t311 117.5q72 0 154 -19l-25 -256q-36 8 -94 8q-73 0 -110.5 -43t-37.5 -157v-160h240v-240h-240v-649h-303v649h-190zM899 0v1501h303v-1501h-303z" />
<glyph unicode="&#xfb03;" horiz-adv-x="2062" d="M39 649v43l190 197v184q0 208 105 325.5t311 117.5q72 0 154 -19l-25 -256q-36 8 -94 8q-73 0 -110.5 -43t-37.5 -157v-160h240v-184l178 184v184q0 208 105 325.5t311 117.5q72 0 154 -19l-25 -256q-36 8 -94 8q-73 0 -110.5 -43t-37.5 -157v-160h240v-240h-240v-649 h-303v649h-418v-649h-303v649h-190zM1614 1196q0 71 50 121.5t120 50.5t120 -50.5t50 -121.5q0 -70 -50 -120t-120 -50t-120 50t-50 120zM1630 0v889h305v-889h-305z" />
<glyph unicode="&#xfb04;" horiz-adv-x="2039" d="M39 649v43l190 197v184q0 208 105 325.5t311 117.5q72 0 154 -19l-25 -256q-36 8 -94 8q-73 0 -110.5 -43t-37.5 -157v-160h240v-184l178 184v184q0 208 105 325.5t311 117.5q72 0 154 -19l-25 -256q-36 8 -94 8q-73 0 -110.5 -43t-37.5 -157v-160h240v-240h-240v-649 h-303v649h-418v-649h-303v649h-190zM1620 0v1501h303v-1501h-303z" />
</font>
</defs>
</svg>
